<mxfile host="app.diagrams.net" modified="2023-10-26T08:53:24.738Z" agent="Mozilla/5.0 (Windows NT 10.0; Win64; x64) AppleWebKit/537.36 (KHTML, like Gecko) Chrome/118.0.0.0 Safari/537.36" version="22.0.8" etag="_V_UFbA3JDBKf8a8IW0v" type="github">
  <diagram name="Page-1" id="yxbPtc_7-HD6SEhu5AP-">
    <mxGraphModel>
      <root>
        <mxCell id="0" />
        <mxCell id="1" parent="0" />
      </root>
    </mxGraphModel>
  </diagram>
</mxfile>
